<?xml version="1.0" ?><svg data-name="Layer 1" id="Layer_1" viewBox="0 0 508.33 508.36" xmlns="http://www.w3.org/2000/svg"><defs><style>.cls-1{fill:#1769ff;fill-rule:evenodd;}.cls-2{fill:#fff;}</style></defs><title/><path class="cls-1" d="M485,29.72c11.45,15.13,16.61,40.21,19.15,70.7,3.36,45.5,4.71,100.1,6,156.52-1.67,57.47-2.35,115.43-6,156.52-2.88,31.54-9,52.66-19.22,65.47-13,12.79-37.94,23.59-73.5,26.15-43.25,3.69-96.61,3.65-155.48,5.1-65.44-1.12-109.82-.64-156.38-5.08-36.32-2.52-60.08-13.19-74.7-26.07-10.83-14.54-14-30-17-66.24-3.75-41.85-4.58-98.56-6-155.54C4,200.57,4.13,143.44,7.9,100.74,10.43,67.05,14.42,44.4,24.65,30,39,17.77,63.48,11.69,100,8.69c50-5.85,102.06-7,155.88-6.87,55.39.09,108.56,1.67,156,6.34,32,2.56,58.48,8.07,73.07,21.56Z" transform="translate(-1.83 -1.82)"/><path class="cls-2" d="M221.62,239S250,236.86,250,203.62s-23.18-49.46-52.56-49.46H100.75V339.9H197.4s59,1.86,59-54.83C256.4,285.08,259,239,221.62,239Zm-78.29-51.79H197.4s13.14,0,13.14,19.32-7.73,22.13-16.49,22.13H143.33V187.18Zm51.33,119.71c-1.43,0-2.64,0-3.45,0H143.34V257.26H197.4S217,257,217,282.76C217,304.49,202.36,306.73,194.67,306.89Z" transform="translate(-1.83 -1.82)"/><path class="cls-2" d="M335.1,201.42c-71.43,0-71.37,71.37-71.37,71.37s-4.89,71,71.37,71c0,0,63.56,3.63,63.56-49.4H366s1.08,20-29.78,20c0,0-32.68,2.18-32.68-32.33h96.24S410.28,201.42,335.1,201.42Zm-32,55.84s4-28.63,32.68-28.63,28.32,28.63,28.32,28.63Z" transform="translate(-1.83 -1.82)"/><rect class="cls-2" height="22.87" width="76.62" x="293.31" y="163.28"/></svg>