<svg xmlns="http://www.w3.org/2000/svg" xmlns:xlink="http://www.w3.org/1999/xlink" width="600" height="600" viewBox="0 0 600 600"><defs><clipPath id="b"><rect width="600" height="600"/></clipPath></defs><g id="a" clip-path="url(#b)"><rect width="600" height="600" fill="#fff"/><g transform="translate(42.961 44)"><path d="M181.706,487.791c-9.382,5.944-15.253,5.573-19.712-1.006-2.078-3.065-4.061-6.194-6.142-9.257-3.52-5.182-7.084-10.335-10.7-15.6-11.422,2.89-22.841,5.743-34.239,8.674A10.864,10.864,0,0,1,97,459.942c0-10,.028-20-.008-30-.053-14.651,2.733-28.884,6.539-42.924a182.85,182.85,0,0,1,26.448-56.851c2.869-4.13,5.923-8.132,9.188-12.6A141.6,141.6,0,0,1,97.192,300.84c-10.543-6.336-20.442-13.848-30.15-21.447-14.208-11.121-24.864-25.412-33.916-40.868a174.956,174.956,0,0,1-10.283-20.308c-2.676-6.343-.48-11.458,5.807-14.011,7.154-2.905,14.589-5.119,21.9-7.631-2.188-6.931-4.4-13.937-6.611-20.945-2.018-6.4.677-12.568,6.888-14.515,13.183-4.133,26.571-7.466,40.461-8.095,9.752-.442,19.52-1.1,29.267-.922a160.317,160.317,0,0,1,41.838,6.652c4.926,1.432,9.854,2.856,14.369,4.165-.253-12.035-1.3-24.058-.58-35.975a174.814,174.814,0,0,1,13.917-58.384,169.366,169.366,0,0,1,25.841-42.089c4.855-5.828,11.537-5.67,17.48-1.578,6.794,4.68,13.654,9.284,20.711,13.547a6.736,6.736,0,0,0,5.79-.067c6.786-4.015,13.462-8.259,19.9-12.818,9.775-6.927,14.983-3.683,20.6,3.458a175.832,175.832,0,0,1,33.3,69.457c4,17.088,4.916,34.506,4.23,52-.158,4.017-.97,8.009-1.548,12.534,6.62-1.84,12.957-3.976,19.458-5.319a243.813,243.813,0,0,1,27.375-4.535c10.7-.961,21.63-2.024,32.22-.86a402.658,402.658,0,0,1,46.43,8.387c8.279,1.912,10.466,8.408,7.613,17.392-.972,3.061-2.073,6.081-3.086,9.128s-1.994,6.115-3.053,9.371c6.254,2.125,12.574,4.287,18.905,6.419,9.315,3.138,12.721,9.548,7.985,18.053a416.928,416.928,0,0,1-23.072,37.075c-12.331,17.526-28.962,30.675-47.308,41.318-13.938,8.085-28.7,14.761-44.556,17.905,5.36,8.173,10.8,16.166,15.928,24.354,10.066,16.073,16.633,33.673,20.577,52.079,2.621,12.231,3.8,24.8,5.084,37.278a222.516,222.516,0,0,1,1.011,25.258c-.111,9.65-3.616,13.437-10.539,14.485-3.319.5-7-.98-10.45-1.816-9.244-2.237-18.456-4.61-28.2-7.061-5.02,7.6-10.282,15.281-15.236,23.154-4.773,7.583-12.493,9.431-20.361,3.6-10.038-7.437-20.755-14.1-30.029-22.391-13.119-11.723-25.622-24.256-34.312-39.91-3.91-7.044-7.758-14.123-11.843-21.568-2.534,4.822-5.019,9.582-7.532,14.327-12.225,23.079-29.912,41.273-50.761,56.611-5.482,4.032-11.106,7.871-16.937,12.058M282.518,317.986c6.19,9.882,12.289,19.823,18.606,29.623,3.586,5.563,8.791,6.79,14.209,3.781,6.224-3.456,7.414-9.285,3.1-16.214q-17.552-28.222-35.212-56.377c-2.863-4.59-5.627-9.243-8.759-14.4,2.475-.659,4.036-1.135,5.624-1.488,24.368-5.428,48.75-10.795,73.1-16.281,8.063-1.816,11.536-7.275,9.635-14.6-1.323-5.1-7.344-7.894-13.889-6.439q-37.016,8.224-74.029,16.458c-7.015,1.564-6.959,1.6-7.033-5.454-.269-25.634-.516-51.269-.912-76.9-.086-5.557-3.276-8.47-8.774-8.815-7.905-.5-12.027,3.559-12.053,12.28-.074,24.5-.021,49-.042,73.494,0,1.948-.18,3.9-.3,6.352-1.942-.2-3.4-.224-4.8-.527-6.181-1.337-12.343-2.767-18.516-4.142q-29-6.461-58-12.889c-8.505-1.867-14.082,2.988-13.631,11.627.3,5.707,4.073,8.131,8.936,9.249,17.149,3.941,34.327,7.758,51.5,11.611,9.165,2.057,18.336,4.092,28.452,6.348-5.1,8.217-9.613,15.541-14.167,22.841q-14.946,23.957-29.937,47.886c-2.554,4.066-3.838,8.189-1.148,12.645,4.355,7.214,13.728,7.243,18.505-.218,9.7-15.152,19.123-30.481,28.675-45.728,4.918-7.85,9.867-15.681,15.362-24.409C265.758,291.231,273.953,304.3,282.518,317.986Z" fill="#f6aa93"/><path d="M282.333,317.673c-8.38-13.377-16.575-26.442-25.313-40.374-5.494,8.728-10.444,16.558-15.362,24.409-9.552,15.247-18.975,30.576-28.675,45.728-4.777,7.462-14.15,7.432-18.505.218-2.69-4.456-1.405-8.578,1.148-12.645q15.017-23.912,29.937-47.886c4.555-7.3,9.072-14.624,14.167-22.841-10.116-2.256-19.286-4.291-28.452-6.348-17.169-3.853-34.347-7.67-51.5-11.611-4.863-1.118-8.638-3.542-8.936-9.249-.451-8.639,5.126-13.494,13.631-11.627q29.019,6.369,58,12.889c6.173,1.375,12.335,2.805,18.516,4.142,1.4.3,2.858.323,4.8.527.122-2.456.3-4.4.3-6.352.02-24.5-.032-49,.042-73.494.026-8.721,4.148-12.776,12.053-12.28,5.5.345,8.688,3.258,8.774,8.815.4,25.633.643,51.267.912,76.9.074,7.05.017,7.018,7.033,5.454q37.01-8.249,74.029-16.458c6.545-1.454,12.566,1.34,13.889,6.439,1.9,7.329-1.571,12.787-9.635,14.6-24.355,5.486-48.736,10.853-73.1,16.281-1.588.354-3.149.829-5.624,1.488,3.131,5.153,5.9,9.805,8.759,14.4q17.589,28.2,35.212,56.377c4.309,6.929,3.119,12.758-3.1,16.214-5.419,3.009-10.624,1.782-14.209-3.781C294.807,337.809,288.708,327.868,282.333,317.673Z" fill="#fff"/></g></g></svg>