<?xml version="1.0" standalone="no"?>
<!DOCTYPE svg PUBLIC "-//W3C//DTD SVG 20010904//EN"
 "http://www.w3.org/TR/2001/REC-SVG-20010904/DTD/svg10.dtd">
<svg version="1.0" xmlns="http://www.w3.org/2000/svg"
 width="512.000000pt" height="512.000000pt" viewBox="0 0 512.000000 512.000000"
 preserveAspectRatio="xMidYMid meet">
<metadata>
Created by potrace 1.14, written by Peter Selinger 2001-2017
</metadata>
<g transform="translate(0.000000,512.000000) scale(0.100000,-0.100000)"
fill="#000000" stroke="none">
<path d="M2197 4895 c-32 -16 -62 -51 -128 -144 -163 -233 -273 -529 -306
-821 -9 -85 -8 -286 2 -374 6 -61 6 -68 -9 -63 -28 11 -184 58 -208 63 -13 2
-34 6 -48 9 -14 2 -47 9 -75 14 -96 18 -191 25 -325 25 -126 0 -264 -9 -293
-19 -6 -2 -31 -6 -54 -9 -61 -7 -244 -56 -275 -74 -58 -34 -60 -84 -9 -235 18
-54 29 -102 25 -107 -5 -4 -59 -24 -120 -44 -182 -60 -194 -88 -107 -257 50
-98 144 -253 162 -269 3 -3 24 -27 46 -55 105 -131 293 -293 452 -389 93 -55
225 -114 351 -156 l112 -37 -33 -44 c-193 -253 -326 -561 -372 -861 -17 -114
-22 -177 -24 -351 l-2 -195 31 -36 c42 -48 62 -47 280 8 96 25 177 41 180 37
3 -4 46 -67 95 -141 127 -188 146 -193 304 -79 53 37 105 74 115 81 217 147
432 394 544 626 21 42 41 83 46 90 5 8 25 -22 57 -85 61 -122 80 -153 151
-250 48 -65 207 -236 261 -280 49 -40 192 -144 273 -199 98 -66 121 -72 174
-44 9 5 59 72 111 149 62 93 98 138 108 136 9 -2 88 -21 176 -44 169 -44 200
-47 238 -30 46 21 59 60 60 187 1 137 -9 293 -24 377 -6 33 -12 72 -14 87 -8
58 -46 199 -80 298 -64 183 -165 370 -283 525 l-30 40 112 36 c449 146 809
458 1015 878 77 158 63 189 -114 248 -61 20 -114 39 -119 44 -4 4 8 57 28 117
21 61 38 119 39 129 2 33 -25 83 -53 98 -56 29 -274 76 -425 93 -82 9 -314 8
-400 -1 -139 -15 -342 -62 -449 -103 -17 -6 -18 -2 -10 67 10 94 10 284 0 371
-34 311 -141 587 -326 846 -116 161 -128 163 -320 36 -79 -52 -149 -93 -157
-90 -7 3 -71 44 -141 90 -137 91 -172 104 -215 81z"/>
</g>
</svg>
